# xmcd
#
# Track frame offsets:
#	182
#	8537
#	21792
#	38330
#	48417
#	63412
#	75675
#	88785
#	103250
#	112915
#
# Disc length: 1704 seconds
#
# Revision: 2
# Processed by: cddbd v1.5.2PL0 Copyright (c) Steve Scherf et al.
# Submitted via: audiograbber 1.83.01
#
DISCID=6c06a60a
DTITLE=Sons Of The San Joaquin - Songs Of The Silver Screen
DYEAR=1993
DGENRE=Country
TTITLE0=Cowboy Jubilee
TTITLE1=Song Of The Bandit
TTITLE2=Ridin' The Range With You
TTITLE3=Cherokee Strip
TTITLE4=Empty Saddles
TTITLE5=Yippi-Yi Your Troubles Away
TTITLE6=Round Up Time Is Over
TTITLE7=Down Where The Rio Flows
TTITLE8=Headin' For The Home Corral
TTITLE9=He's Ridin' Home
EXTD=
EXTT0=
EXTT1=
EXTT2=
EXTT3=
EXTT4=
EXTT5=
EXTT6=
EXTT7=
EXTT8=
EXTT9=
PLAYORDER=
